<svg height="890.1099999999999" viewBox="0 0 111 89.011" width="1110" x="0" xmlns="http://www.w3.org/2000/svg" xmlns:xlink="http://www.w3.org/1999/xlink" y="0"><style>.a{font-family:Monaco,Consolas,Menlo,'Bitstream Vera Sans Mono','Powerline Symbols',monospace}.b{fill:rgb(215,95,0);font-weight:bold;text-decoration:none}.c{fill:rgb(255,255,255);font-weight:bold;text-decoration:none}.d{fill:rgb(175,135,0);font-weight:bold;text-decoration:none}.e{fill:rgb(95,135,0);font-weight:bold;text-decoration:none}.f{fill:rgb(219,171,121);font-weight:normal;text-decoration:none}.g{fill:rgb(185,192,203);font-weight:normal;text-decoration:none}.h{fill:rgb(168,204,140);font-weight:normal;text-decoration:none}.i{fill:transparent}.j{fill:rgb(111,118,131)}.k{fill:rgb(40,45,53)}.l{fill:rgb(133,153,1);font-weight:bold;text-decoration:none}.m{fill:rgb(185,192,203);font-weight:bold;text-decoration:none}.n{fill:rgb(102,194,205);font-weight:normal;text-decoration:none}</style><g font-size="1.67" class="a"><defs><symbol id="1"><text x="0" y="1.67" class="b">mathias</text><text x="8.016" y="1.67" class="c">at</text><text x="11.021999999999998" y="1.67" class="d">mathBook</text><text x="20.04" y="1.67" class="c">in</text><text x="23.045999999999996" y="1.67" class="e">/jsvu-demo</text></symbol><symbol id="2"><text x="0" y="1.67" class="f">❯</text><text x="2.004" y="1.67" class="g">Extracting…</text></symbol><symbol id="3"><text x="0" y="1.67" class="h">✔</text><text x="2.004" y="1.67" class="g">Extraction</text><text x="13.026" y="1.67" class="g">completed.</text></symbol><symbol id="4"><text x="0" y="1.67" class="h">✔</text><text x="2.004" y="1.67" class="g">Testing</text><text x="10.02" y="1.67" class="g">completed.</text></symbol><symbol id="a"><rect height="40" width="111" x="0" y="0" class="i"></rect></symbol><symbol id="b"><rect class="j"></rect></symbol></defs><rect height="89.011" width="111" class="k"></rect><svg x="0" y="0" width="111"><svg x="0"><use xlink:href="#a"></use><rect height="2.171" width="1.1022" x="-0.0040000000000000036" y="84.64399999999999" class="j"></rect><text x="0" y="1.67" class="g">bash:</text><text x="6.012" y="1.67" class="g">v8:</text><text x="10.02" y="1.67" class="g">command</text><text x="18.035999999999998" y="1.67" class="g">not</text><text x="22.043999999999997" y="1.67" class="g">found</text><use xlink:href="#1" y="4.342"></use><text x="0" y="8.183" class="c">$</text><text x="2.004" y="8.183" class="g">export</text><text x="9.017999999999999" y="8.183" class="g">PATH=&quot;${HOME}/.jsvu:${PATH}&quot;</text><text x="38.07599999999999" y="8.183" class="g">#</text><text x="40.08" y="8.183" class="g">see</text><text x="44.087999999999994" y="8.183" class="g">https://mths.be/jsvu#installation</text><use xlink:href="#1" y="10.855"></use><text x="0" y="14.696" class="c">$</text><text x="2.004" y="14.696" class="g">jsvu</text><text x="0" y="16.866999999999997" class="g">📦</text><text x="3.006" y="16.866999999999997" class="g">jsvu</text><text x="8.016" y="16.866999999999997" class="g">v1.0.0</text><text x="15.029999999999998" y="16.866999999999997" class="g">—</text><text x="17.034" y="16.866999999999997" class="g">the</text><text x="21.041999999999998" y="16.866999999999997" class="l">J</text><text x="22.043999999999997" y="16.866999999999997" class="g">ava</text><text x="25.05" y="16.866999999999997" class="l">S</text><text x="26.052" y="16.866999999999997" class="g">cript</text><text x="32.064" y="16.866999999999997" class="g">engine</text><text x="39.077999999999996" y="16.866999999999997" class="l">V</text><text x="40.08" y="16.866999999999997" class="g">ersion</text><text x="47.093999999999994" y="16.866999999999997" class="l">U</text><text x="48.096" y="16.866999999999997" class="g">pdater</text><text x="55.10999999999999" y="16.866999999999997" class="g">📦</text><text x="0" y="19.037999999999997" class="h">?</text><text x="2.004" y="19.037999999999997" class="m">What</text><text x="7.013999999999999" y="19.037999999999997" class="m">is</text><text x="10.02" y="19.037999999999997" class="m">your</text><text x="15.029999999999998" y="19.037999999999997" class="m">operating</text><text x="25.05" y="19.037999999999997" class="m">system?</text><text x="33.065999999999995" y="19.037999999999997" class="n">macOS</text><text x="39.077999999999996" y="19.037999999999997" class="n">64-bit</text><text x="0" y="21.209000000000003" class="h">?</text><text x="2.004" y="21.209000000000003" class="m">Which</text><text x="8.016" y="21.209000000000003" class="m">JavaScript</text><text x="19.037999999999997" y="21.209000000000003" class="m">engines</text><text x="27.054" y="21.209000000000003" class="m">would</text><text x="33.065999999999995" y="21.209000000000003" class="m">you</text><text x="37.074" y="21.209000000000003" class="m">like</text><text x="42.083999999999996" y="21.209000000000003" class="m">to</text><text x="45.089999999999996" y="21.209000000000003" class="m">install?</text><text x="54.108" y="21.209000000000003" class="n">Chakra/ChakraCore,</text><text x="73.146" y="21.209000000000003" class="n">JavaScriptCore,</text><text x="89.178" y="21.209000000000003" class="n">SpiderMonkey,</text><text x="103.20599999999999" y="21.209000000000003" class="n">V8</text><text x="0" y="23.380000000000003" class="h">✔</text><text x="2.004" y="23.380000000000003" class="g">Found</text><text x="8.016" y="23.380000000000003" class="g">latest</text><text x="15.029999999999998" y="23.380000000000003" class="g">Chakra</text><text x="22.043999999999997" y="23.380000000000003" class="g">version:</text><text x="31.061999999999998" y="23.380000000000003" class="g">v1.7.4.</text><text x="0" y="25.550999999999995" class="h">✔</text><text x="2.004" y="25.550999999999995" class="g">URL:</text><text x="7.013999999999999" y="25.550999999999995" class="g">https://aka.ms/chakracore/cc_osx_x64_1_7_4</text><text x="0" y="27.722" class="h">✔</text><text x="2.004" y="27.722" class="g">SHA-256</text><text x="10.02" y="27.722" class="g">checksum:</text><text x="20.04" y="27.722" class="g">71473323193c6285f268160e2ec5bf8e14d6b6bc8c4844040b7b408d750b8a2a</text><text x="0" y="29.893" class="h">✔</text><text x="2.004" y="29.893" class="g">Download</text><text x="11.021999999999998" y="29.893" class="g">and</text><text x="15.029999999999998" y="29.893" class="g">checksum</text><text x="24.048" y="29.893" class="g">verification</text><text x="37.074" y="29.893" class="g">completed.</text><use xlink:href="#2" y="30.394"></use><text x="0" y="34.235" class="g">Installing</text><text x="11.021999999999998" y="34.235" class="g">library</text><text x="19.037999999999997" y="34.235" class="g">to</text><text x="22.043999999999997" y="34.235" class="g">~/.jsvu/engines/chakra/lib/libChakraCore.dylib…</text><text x="0" y="36.406" class="g">Installing</text><text x="11.021999999999998" y="36.406" class="g">binary</text><text x="18.035999999999998" y="36.406" class="g">to</text><text x="21.041999999999998" y="36.406" class="g">~/.jsvu/engines/chakra/chakra…</text><text x="0" y="38.577000000000005" class="g">Installing</text><text x="11.021999999999998" y="38.577000000000005" class="g">symlink</text><text x="19.037999999999997" y="38.577000000000005" class="g">at</text><text x="22.043999999999997" y="38.577000000000005" class="g">~/.jsvu/chakra</text><text x="37.074" y="38.577000000000005" class="g">pointing</text><text x="46.09199999999999" y="38.577000000000005" class="g">to</text><text x="49.098" y="38.577000000000005" class="g">~/.jsvu/engines/chakra/chakra…</text><text x="0" y="40.748000000000005" class="g">Installing</text><text x="11.021999999999998" y="40.748000000000005" class="g">symlink</text><text x="19.037999999999997" y="40.748000000000005" class="g">at</text><text x="22.043999999999997" y="40.748000000000005" class="g">~/.jsvu/ch</text><text x="33.065999999999995" y="40.748000000000005" class="g">pointing</text><text x="42.083999999999996" y="40.748000000000005" class="g">to</text><text x="45.089999999999996" y="40.748000000000005" class="g">~/.jsvu/engines/chakra/chakra…</text><text x="0" y="42.919" class="g">Installing</text><text x="11.021999999999998" y="42.919" class="g">license</text><text x="19.037999999999997" y="42.919" class="g">to</text><text x="22.043999999999997" y="42.919" class="g">~/.jsvu/engines/chakra/LICENSE-chakra…</text><use xlink:href="#3" y="43.42"></use><use xlink:href="#4" y="45.591"></use><text x="0" y="49.431999999999995" class="h">✔</text><text x="2.004" y="49.431999999999995" class="g">Chakra</text><text x="9.017999999999999" y="49.431999999999995" class="g">v1.7.4</text><text x="16.032" y="49.431999999999995" class="g">has</text><text x="20.04" y="49.431999999999995" class="g">been</text><text x="25.05" y="49.431999999999995" class="g">installed!</text><text x="36.071999999999996" y="49.431999999999995" class="g">🎉</text><text x="0" y="51.603" class="h">✔</text><text x="2.004" y="51.603" class="g">Found</text><text x="8.016" y="51.603" class="g">latest</text><text x="15.029999999999998" y="51.603" class="g">JavaScriptCore</text><text x="30.059999999999995" y="51.603" class="g">version:</text><text x="39.077999999999996" y="51.603" class="g">v225521.</text><text x="0" y="53.774" class="h">✔</text><text x="2.004" y="53.774" class="g">URL:</text><text x="7.013999999999999" y="53.774" class="g">https://s3-us-west-2.amazonaws.com/minified-archives.webkit.org/mac-highsierra-x86_64-release/225521.zip</text><text x="0" y="55.945" class="h">✔</text><text x="2.004" y="55.945" class="g">Download</text><text x="11.021999999999998" y="55.945" class="g">completed.</text><use xlink:href="#2" y="56.446000000000005"></use><text x="0" y="60.287" class="g">Installing</text><text x="11.021999999999998" y="60.287" class="g">library</text><text x="19.037999999999997" y="60.287" class="g">to</text><text x="22.043999999999997" y="60.287" class="g">~/.jsvu/engines/javascriptcore/JavaScriptCore.framework/Headers…</text><text x="0" y="62.458" class="g">Installing</text><text x="11.021999999999998" y="62.458" class="g">library</text><text x="19.037999999999997" y="62.458" class="g">to</text><text x="22.043999999999997" y="62.458" class="g">~/.jsvu/engines/javascriptcore/JavaScriptCore.framework/JavaScriptCore…</text><text x="0" y="64.629" class="g">Installing</text><text x="11.021999999999998" y="64.629" class="g">library</text><text x="19.037999999999997" y="64.629" class="g">to</text><text x="22.043999999999997" y="64.629" class="g">~/.jsvu/engines/javascriptcore/JavaScriptCore.framework/PrivateHeaders…</text><text x="0" y="66.8" class="g">Installing</text><text x="11.021999999999998" y="66.8" class="g">library</text><text x="19.037999999999997" y="66.8" class="g">to</text><text x="22.043999999999997" y="66.8" class="g">~/.jsvu/engines/javascriptcore/JavaScriptCore.framework/Resources…</text><text x="0" y="68.971" class="g">Installing</text><text x="11.021999999999998" y="68.971" class="g">library</text><text x="19.037999999999997" y="68.971" class="g">to</text><text x="22.043999999999997" y="68.971" class="g">~/.jsvu/engines/javascriptcore/JavaScriptCore.framework/Versions…</text><text x="0" y="71.142" class="g">Installing</text><text x="11.021999999999998" y="71.142" class="g">binary</text><text x="18.035999999999998" y="71.142" class="g">to</text><text x="21.041999999999998" y="71.142" class="g">~/.jsvu/engines/javascriptcore/javascriptcore…</text><text x="0" y="73.313" class="g">Installing</text><text x="11.021999999999998" y="73.313" class="g">wrapper</text><text x="19.037999999999997" y="73.313" class="g">script</text><text x="26.052" y="73.313" class="g">to</text><text x="29.058" y="73.313" class="g">~/.jsvu/javascriptcore…</text><text x="0" y="75.48400000000001" class="g">Installing</text><text x="11.021999999999998" y="75.48400000000001" class="g">symlink</text><text x="19.037999999999997" y="75.48400000000001" class="g">at</text><text x="22.043999999999997" y="75.48400000000001" class="g">~/.jsvu/jsc</text><text x="34.068" y="75.48400000000001" class="g">pointing</text><text x="43.086" y="75.48400000000001" class="g">to</text><text x="46.09199999999999" y="75.48400000000001" class="g">~/.jsvu/javascriptcore…</text><use xlink:href="#3" y="75.985"></use><use xlink:href="#4" y="78.156"></use><text x="0" y="81.997" class="h">✔</text><text x="2.004" y="81.997" class="g">JavaScriptCore</text><text x="17.034" y="81.997" class="g">v225521</text><text x="25.05" y="81.997" class="g">has</text><text x="29.058" y="81.997" class="g">been</text><text x="34.068" y="81.997" class="g">installed!</text><text x="45.089999999999996" y="81.997" class="g">🎉</text><text x="0" y="84.16799999999999" class="h">✔</text><text x="2.004" y="84.16799999999999" class="g">Found</text><text x="8.016" y="84.16799999999999" class="g">latest</text><text x="15.029999999999998" y="84.16799999999999" class="g">SpiderMonkey</text><text x="28.055999999999997" y="84.16799999999999" class="g">version:</text><text x="37.074" y="84.16799999999999" class="g">v58.0b9.</text></svg></svg></g></svg>